<svg xmlns="http://www.w3.org/2000/svg" xmlns:xlink="http://www.w3.org/1999/xlink" width="500" zoomAndPan="magnify" viewBox="0 0 375 374.999991" height="500" preserveAspectRatio="xMidYMid meet" version="1.0"><defs><g/><clipPath id="992c5472f5"><path d="M 130.660156 96.726562 L 244.632812 96.726562 L 244.632812 206.96875 L 130.660156 206.96875 Z M 130.660156 96.726562 " clip-rule="nonzero"/></clipPath></defs><rect x="-37.5" width="450" fill="#ffffff" y="-37.499999" height="449.999989" fill-opacity="1"/><rect x="-37.5" width="450" fill="#ffffff" y="-37.499999" height="449.999989" fill-opacity="1"/><rect x="-37.5" width="450" fill="#efeeeb" y="-37.499999" height="449.999989" fill-opacity="1"/><g clip-path="url(#992c5472f5)"><path fill="#545454" d="M 233.140625 142.058594 L 230.609375 142.058594 C 229.851562 142.058594 229.308594 141.550781 229.054688 140.875 C 228.707031 139.976562 228.929688 138.59375 228.851562 137.625 C 228.746094 136.304688 228.570312 134.988281 228.324219 133.683594 C 227.894531 131.378906 227.277344 129.109375 226.472656 126.910156 C 224.875 122.542969 222.488281 118.410156 219.496094 114.839844 C 208.378906 101.570312 189.804688 96.507812 173.460938 102.378906 C 165.558594 105.214844 158.550781 110.582031 153.742188 117.441406 C 151.375 120.8125 149.5 124.515625 148.238281 128.433594 C 147.570312 130.5 147.058594 132.617188 146.71875 134.761719 C 146.539062 135.894531 146.417969 137.039062 146.335938 138.183594 C 146.28125 138.988281 146.464844 140.125 146.175781 140.875 C 145.921875 141.550781 145.386719 142.058594 144.621094 142.058594 C 143.015625 142.058594 141.359375 141.933594 139.796875 142.375 C 137.273438 143.089844 135.164062 145.042969 134.28125 147.507812 C 132.59375 152.21875 136.613281 155.644531 140.570312 157.371094 C 142.355469 158.148438 144.269531 158.683594 146.230469 159.003906 C 146.378906 159.007812 146.519531 159.027344 146.660156 159.070312 C 150.40625 159.609375 154.3125 159.347656 157.867188 158.371094 C 160.210938 157.726562 163.03125 156.554688 165.015625 154.742188 C 165.035156 154.722656 165.0625 154.703125 165.085938 154.683594 C 165.621094 154.183594 166.09375 153.632812 166.480469 153.039062 C 166.605469 152.796875 166.742188 152.554688 166.886719 152.3125 C 167.269531 151.535156 167.5 150.675781 167.527344 149.734375 C 167.585938 147.664062 170.695312 147.667969 170.753906 149.734375 C 170.976562 157.140625 181.960938 159.308594 187.613281 159.308594 C 193.269531 159.308594 204.257812 157.140625 204.476562 149.734375 C 204.539062 147.664062 207.644531 147.667969 207.703125 149.734375 C 207.730469 150.707031 207.984375 151.585938 208.398438 152.394531 C 208.488281 152.550781 208.574219 152.703125 208.65625 152.859375 C 210.140625 155.289062 213.097656 156.921875 215.667969 157.839844 C 220.761719 159.65625 226.554688 159.796875 231.765625 158.371094 C 235.46875 157.355469 240.359375 155.078125 241.289062 150.925781 C 242.359375 146.160156 237.5 142.179688 233.140625 142.058594 Z M 227.015625 162.417969 C 226.640625 162.449219 226.269531 162.480469 225.914062 162.496094 C 221.246094 162.699219 214.742188 161.679688 210.121094 158.777344 C 210.09375 158.980469 210.066406 159.1875 210.046875 159.386719 C 210.019531 160.121094 209.957031 160.875 209.859375 161.644531 C 208.097656 175.679688 206.339844 189.714844 204.578125 203.753906 L 216.652344 203.753906 C 217.015625 202.304688 217.378906 200.851562 217.746094 199.402344 C 220.835938 187.070312 223.925781 174.746094 227.015625 162.417969 Z M 186 162.480469 C 180.082031 162.144531 172.394531 159.953125 169.117188 154.882812 C 168.496094 156.214844 168.324219 157.566406 168.363281 158.96875 C 168.535156 160.492188 168.648438 162.039062 168.832031 163.492188 C 170.511719 176.910156 172.195312 190.332031 173.882812 203.753906 L 186 203.753906 Z M 189.230469 162.476562 L 189.230469 203.753906 L 201.351562 203.753906 L 201.917969 199.222656 C 202.628906 193.546875 203.34375 187.875 204.054688 182.195312 C 204.464844 178.914062 204.878906 175.628906 205.289062 172.347656 C 205.386719 171.566406 205.488281 170.785156 205.582031 170.007812 C 205.898438 167.46875 206.214844 164.941406 206.535156 162.40625 C 206.65625 161.453125 206.738281 160.457031 206.839844 159.460938 C 206.921875 157.957031 206.804688 156.550781 206.234375 155.171875 C 206.183594 155.097656 206.136719 155.015625 206.082031 154.933594 C 202.789062 159.96875 195.132812 162.132812 189.230469 162.476562 Z M 158.578125 203.753906 L 170.648438 203.753906 C 170.4375 202.054688 170.226562 200.355469 170.011719 198.65625 C 169.597656 195.363281 169.1875 192.066406 168.773438 188.769531 C 168.148438 183.789062 167.523438 178.808594 166.898438 173.828125 C 166.433594 170.136719 165.972656 166.445312 165.511719 162.753906 L 165.507812 162.753906 C 165.425781 162.09375 165.34375 161.4375 165.261719 160.78125 C 165.195312 160.246094 165.15625 159.722656 165.140625 159.203125 C 165.121094 159.023438 165.101562 158.839844 165.078125 158.664062 C 164.003906 159.371094 162.851562 159.964844 161.683594 160.449219 C 157.472656 162.195312 152.78125 162.792969 148.214844 162.425781 C 148.488281 163.511719 148.757812 164.59375 149.03125 165.675781 C 152.210938 178.367188 155.394531 191.0625 158.578125 203.753906 Z M 230.472656 161.902344 C 230.085938 163.445312 229.699219 164.988281 229.3125 166.53125 C 226.03125 179.613281 222.75 192.703125 219.46875 205.789062 C 219.296875 206.472656 218.605469 206.96875 217.910156 206.96875 L 157.316406 206.96875 C 156.621094 206.96875 155.929688 206.472656 155.757812 205.789062 C 155.296875 203.945312 154.832031 202.097656 154.371094 200.253906 C 151.171875 187.492188 147.96875 174.730469 144.769531 161.964844 C 144.648438 161.941406 144.519531 161.921875 144.394531 161.898438 C 139.792969 160.96875 134.898438 158.804688 132.1875 154.8125 C 129.550781 150.925781 130.519531 145.9375 133.585938 142.578125 C 136.246094 139.667969 139.605469 138.980469 143.25 138.863281 C 143.289062 137.980469 143.203125 136.957031 143.285156 136.246094 C 143.425781 135.011719 143.605469 133.78125 143.84375 132.558594 C 144.335938 129.996094 145.066406 127.480469 146.023438 125.054688 C 147.847656 120.429688 150.398438 116.160156 153.617188 112.367188 C 165.488281 98.371094 185.597656 93.03125 202.875 99.367188 C 211.277344 102.449219 218.558594 107.964844 223.820312 115.175781 C 226.402344 118.722656 228.425781 122.667969 229.851562 126.8125 C 230.613281 129.035156 231.195312 131.320312 231.582031 133.636719 C 231.773438 134.777344 231.925781 135.925781 232.03125 137.074219 C 232.078125 137.546875 232.023438 138.21875 232.023438 138.84375 L 233.140625 138.84375 C 238.40625 138.988281 243.160156 142.464844 244.363281 147.683594 C 246.257812 155.914062 237.808594 160.375 230.472656 161.902344 Z M 196.046875 116.367188 C 197.21875 114.820312 198.390625 113.273438 199.558594 111.722656 C 200.082031 111.027344 199.667969 109.925781 198.980469 109.523438 C 198.152344 109.042969 197.296875 109.402344 196.769531 110.101562 C 195.601562 111.648438 194.429688 113.195312 193.257812 114.746094 C 192.734375 115.4375 193.148438 116.542969 193.839844 116.945312 C 194.667969 117.425781 195.519531 117.0625 196.046875 116.367188 Z M 187.25 116.367188 C 188.421875 114.820312 189.589844 113.273438 190.765625 111.722656 C 191.289062 111.027344 190.875 109.925781 190.183594 109.523438 C 189.359375 109.042969 188.503906 109.402344 187.976562 110.101562 C 186.804688 111.648438 185.632812 113.195312 184.464844 114.746094 C 183.9375 115.4375 184.351562 116.542969 185.042969 116.945312 C 185.871094 117.425781 186.726562 117.0625 187.25 116.367188 Z M 178.453125 116.367188 C 177.929688 117.0625 177.070312 117.425781 176.246094 116.945312 C 175.554688 116.542969 175.140625 115.4375 175.664062 114.746094 C 176.835938 113.195312 178.011719 111.648438 179.179688 110.101562 C 179.707031 109.402344 180.5625 109.042969 181.386719 109.523438 C 182.078125 109.925781 182.492188 111.027344 181.96875 111.722656 C 180.796875 113.273438 179.628906 114.820312 178.453125 116.367188 " fill-opacity="1" fill-rule="nonzero"/></g><g fill="#545454" fill-opacity="1"><g transform="translate(113.863569, 252.288953)"><g><path d="M 2.09375 -0.59375 L 2.09375 -27.65625 C 2.09375 -28.382812 1.957031 -28.90625 1.6875 -29.21875 C 1.425781 -29.539062 0.945312 -29.703125 0.25 -29.703125 C 0.21875 -30.566406 0.453125 -31.25 0.953125 -31.75 C 1.453125 -32.25 2.25 -32.5 3.34375 -32.5 C 4.445312 -32.5 5.234375 -31.945312 5.703125 -30.84375 C 7.003906 -31.945312 8.335938 -32.5 9.703125 -32.5 C 13.003906 -32.5 14.65625 -30.863281 14.65625 -27.59375 L 14.65625 -16 C 14.65625 -13.894531 13.769531 -12.394531 12 -11.5 L 13.046875 -4.796875 C 13.210938 -3.734375 13.726562 -3.203125 14.59375 -3.203125 C 14.863281 -3.203125 15.179688 -3.269531 15.546875 -3.40625 C 15.679688 -3 15.75 -2.519531 15.75 -1.96875 C 15.75 -1.425781 15.472656 -0.878906 14.921875 -0.328125 C 14.367188 0.222656 13.660156 0.5 12.796875 0.5 C 10.828125 0.5 9.710938 -0.347656 9.453125 -2.046875 L 8 -10.703125 L 6.046875 -10.703125 L 6.046875 -4.703125 L 6.25 0 C 5.113281 0.164062 4 0.25 2.90625 0.25 C 2.363281 0.25 2.09375 -0.03125 2.09375 -0.59375 Z M 8.75 -29.203125 C 7.851562 -29.203125 6.953125 -28.75 6.046875 -27.84375 L 6.046875 -14 L 8.34375 -14 C 9.050781 -14 9.617188 -14.171875 10.046875 -14.515625 C 10.484375 -14.867188 10.703125 -15.363281 10.703125 -16 L 10.703125 -27.296875 C 10.703125 -28.566406 10.050781 -29.203125 8.75 -29.203125 Z M 8.75 -29.203125 "/></g></g></g><g fill="#545454" fill-opacity="1"><g transform="translate(130.411004, 252.288953)"><g><path d="M 8.40625 -16.90625 C 9.601562 -16.90625 10.5 -16.988281 11.09375 -17.15625 C 11.363281 -16.21875 11.5 -15.300781 11.5 -14.40625 C 11.5 -13.863281 11.265625 -13.59375 10.796875 -13.59375 L 7.84375 -13.59375 C 7.144531 -13.59375 6.585938 -13.410156 6.171875 -13.046875 C 5.753906 -12.679688 5.546875 -12.195312 5.546875 -11.59375 L 5.546875 -4.796875 C 5.546875 -4.160156 5.753906 -3.664062 6.171875 -3.3125 C 6.585938 -2.96875 7.144531 -2.796875 7.84375 -2.796875 C 8.550781 -2.796875 9.117188 -2.96875 9.546875 -3.3125 C 9.984375 -3.664062 10.203125 -4.160156 10.203125 -4.796875 L 10.203125 -6.046875 L 10.046875 -8.59375 C 10.515625 -8.695312 10.984375 -8.75 11.453125 -8.75 C 11.921875 -8.75 12.382812 -8.679688 12.84375 -8.546875 C 13.71875 -8.316406 14.15625 -7.898438 14.15625 -7.296875 L 14.15625 -4.09375 C 14.15625 -2.726562 13.585938 -1.617188 12.453125 -0.765625 C 11.316406 0.078125 9.789062 0.5 7.875 0.5 C 5.957031 0.5 4.429688 0.0351562 3.296875 -0.890625 C 2.160156 -1.828125 1.59375 -3.128906 1.59375 -4.796875 L 1.59375 -11.796875 C 1.59375 -13.296875 2.078125 -14.445312 3.046875 -15.25 C 2.078125 -16.050781 1.59375 -17.203125 1.59375 -18.703125 L 1.59375 -27.703125 C 1.59375 -29.367188 2.160156 -30.664062 3.296875 -31.59375 C 4.429688 -32.53125 5.941406 -33 7.828125 -33 C 9.710938 -33 11.203125 -32.570312 12.296875 -31.71875 C 13.398438 -30.875 13.953125 -29.769531 13.953125 -28.40625 L 13.953125 -24.203125 C 13.953125 -23.597656 13.519531 -23.179688 12.65625 -22.953125 C 12.1875 -22.816406 11.71875 -22.75 11.25 -22.75 C 10.78125 -22.75 10.3125 -22.800781 9.84375 -22.90625 C 9.945312 -23.695312 10 -24.546875 10 -25.453125 L 10 -27.703125 C 10 -29.035156 9.265625 -29.703125 7.796875 -29.703125 C 7.097656 -29.703125 6.546875 -29.523438 6.140625 -29.171875 C 5.742188 -28.828125 5.546875 -28.335938 5.546875 -27.703125 L 5.546875 -18.90625 C 5.546875 -18.300781 5.738281 -17.816406 6.125 -17.453125 C 6.507812 -17.085938 7.019531 -16.90625 7.65625 -16.90625 Z M 8.40625 -16.90625 "/></g></g></g><g fill="#545454" fill-opacity="1"><g transform="translate(145.708641, 252.288953)"><g><path d="M 14.203125 -4.40625 C 14.203125 -3 13.609375 -1.828125 12.421875 -0.890625 C 11.242188 0.0351562 9.703125 0.5 7.796875 0.5 C 5.898438 0.5 4.398438 0.0664062 3.296875 -0.796875 C 2.203125 -1.660156 1.65625 -2.925781 1.65625 -4.59375 L 1.65625 -27.703125 C 1.65625 -29.367188 2.21875 -30.664062 3.34375 -31.59375 C 4.476562 -32.53125 6.003906 -33 7.921875 -33 C 9.835938 -33 11.363281 -32.570312 12.5 -31.71875 C 13.632812 -30.875 14.203125 -29.769531 14.203125 -28.40625 L 14.203125 -22.203125 C 14.203125 -21.597656 13.769531 -21.179688 12.90625 -20.953125 C 12.4375 -20.816406 11.96875 -20.75 11.5 -20.75 C 11.03125 -20.75 10.5625 -20.800781 10.09375 -20.90625 C 10.195312 -21.695312 10.25 -22.546875 10.25 -23.453125 L 10.25 -27.703125 C 10.25 -28.335938 10.03125 -28.828125 9.59375 -29.171875 C 9.164062 -29.523438 8.597656 -29.703125 7.890625 -29.703125 C 7.191406 -29.703125 6.632812 -29.523438 6.21875 -29.171875 C 5.800781 -28.828125 5.59375 -28.335938 5.59375 -27.703125 L 5.59375 -4.796875 C 5.59375 -4.203125 5.800781 -3.71875 6.21875 -3.34375 C 6.632812 -2.976562 7.191406 -2.796875 7.890625 -2.796875 C 8.597656 -2.796875 9.164062 -2.96875 9.59375 -3.3125 C 10.03125 -3.664062 10.25 -4.160156 10.25 -4.796875 L 10.25 -5.90625 L 10.09375 -8.453125 C 10.5625 -8.546875 11.03125 -8.59375 11.5 -8.59375 C 11.96875 -8.59375 12.4375 -8.53125 12.90625 -8.40625 C 13.769531 -8.164062 14.203125 -7.75 14.203125 -7.15625 Z M 14.203125 -4.40625 "/></g></g></g><g fill="#545454" fill-opacity="1"><g transform="translate(161.256229, 252.288953)"><g><path d="M 1.84375 -0.59375 L 1.84375 -27.796875 L 1.65625 -32.5 C 2.78125 -32.664062 3.894531 -32.75 5 -32.75 C 5.53125 -32.75 5.796875 -32.46875 5.796875 -31.90625 L 5.796875 -4.703125 L 6 0 C 4.863281 0.164062 3.75 0.25 2.65625 0.25 C 2.113281 0.25 1.84375 -0.03125 1.84375 -0.59375 Z M 1.84375 -0.59375 "/></g></g></g><g fill="#545454" fill-opacity="1"><g transform="translate(168.905047, 252.288953)"><g><path d="M 2.09375 -0.59375 L 2.09375 -27.65625 C 2.09375 -28.382812 1.957031 -28.90625 1.6875 -29.21875 C 1.425781 -29.539062 0.945312 -29.703125 0.25 -29.703125 C 0.21875 -30.566406 0.453125 -31.25 0.953125 -31.75 C 1.453125 -32.25 2.25 -32.5 3.34375 -32.5 C 4.445312 -32.5 5.234375 -31.945312 5.703125 -30.84375 C 7.003906 -31.945312 8.335938 -32.5 9.703125 -32.5 C 13.003906 -32.5 14.65625 -30.863281 14.65625 -27.59375 L 14.65625 -15.296875 C 14.65625 -13.628906 14.078125 -12.328125 12.921875 -11.390625 C 11.773438 -10.460938 10.21875 -10 8.25 -10 L 6.046875 -10 L 6.046875 -4.703125 L 6.25 0 C 5.113281 0.164062 4 0.25 2.90625 0.25 C 2.363281 0.25 2.09375 -0.03125 2.09375 -0.59375 Z M 8.75 -29.203125 C 7.851562 -29.203125 6.953125 -28.75 6.046875 -27.84375 L 6.046875 -13.296875 L 8.34375 -13.296875 C 9.050781 -13.296875 9.617188 -13.46875 10.046875 -13.8125 C 10.484375 -14.164062 10.703125 -14.660156 10.703125 -15.296875 L 10.703125 -27.296875 C 10.703125 -28.566406 10.050781 -29.203125 8.75 -29.203125 Z M 8.75 -29.203125 "/></g></g></g><g fill="#545454" fill-opacity="1"><g transform="translate(184.802583, 252.288953)"><g><path d="M 8.40625 -16.90625 C 9.601562 -16.90625 10.5 -16.988281 11.09375 -17.15625 C 11.363281 -16.21875 11.5 -15.300781 11.5 -14.40625 C 11.5 -13.863281 11.265625 -13.59375 10.796875 -13.59375 L 7.84375 -13.59375 C 7.144531 -13.59375 6.585938 -13.410156 6.171875 -13.046875 C 5.753906 -12.679688 5.546875 -12.195312 5.546875 -11.59375 L 5.546875 -4.796875 C 5.546875 -4.160156 5.753906 -3.664062 6.171875 -3.3125 C 6.585938 -2.96875 7.144531 -2.796875 7.84375 -2.796875 C 8.550781 -2.796875 9.117188 -2.96875 9.546875 -3.3125 C 9.984375 -3.664062 10.203125 -4.160156 10.203125 -4.796875 L 10.203125 -6.046875 L 10.046875 -8.59375 C 10.515625 -8.695312 10.984375 -8.75 11.453125 -8.75 C 11.921875 -8.75 12.382812 -8.679688 12.84375 -8.546875 C 13.71875 -8.316406 14.15625 -7.898438 14.15625 -7.296875 L 14.15625 -4.09375 C 14.15625 -2.726562 13.585938 -1.617188 12.453125 -0.765625 C 11.316406 0.078125 9.789062 0.5 7.875 0.5 C 5.957031 0.5 4.429688 0.0351562 3.296875 -0.890625 C 2.160156 -1.828125 1.59375 -3.128906 1.59375 -4.796875 L 1.59375 -11.796875 C 1.59375 -13.296875 2.078125 -14.445312 3.046875 -15.25 C 2.078125 -16.050781 1.59375 -17.203125 1.59375 -18.703125 L 1.59375 -27.703125 C 1.59375 -29.367188 2.160156 -30.664062 3.296875 -31.59375 C 4.429688 -32.53125 5.941406 -33 7.828125 -33 C 9.710938 -33 11.203125 -32.570312 12.296875 -31.71875 C 13.398438 -30.875 13.953125 -29.769531 13.953125 -28.40625 L 13.953125 -24.203125 C 13.953125 -23.597656 13.519531 -23.179688 12.65625 -22.953125 C 12.1875 -22.816406 11.71875 -22.75 11.25 -22.75 C 10.78125 -22.75 10.3125 -22.800781 9.84375 -22.90625 C 9.945312 -23.695312 10 -24.546875 10 -25.453125 L 10 -27.703125 C 10 -29.035156 9.265625 -29.703125 7.796875 -29.703125 C 7.097656 -29.703125 6.546875 -29.523438 6.140625 -29.171875 C 5.742188 -28.828125 5.546875 -28.335938 5.546875 -27.703125 L 5.546875 -18.90625 C 5.546875 -18.300781 5.738281 -17.816406 6.125 -17.453125 C 6.507812 -17.085938 7.019531 -16.90625 7.65625 -16.90625 Z M 8.40625 -16.90625 "/></g></g></g><g fill="#545454" fill-opacity="1"><g transform="translate(200.10022, 252.288953)"><g><path d="M 4.34375 -13.703125 C 3.25 -13.703125 2.414062 -13.617188 1.84375 -13.453125 C 1.613281 -14.316406 1.5 -15.070312 1.5 -15.71875 C 1.5 -16.375 1.71875 -16.703125 2.15625 -16.703125 L 9.046875 -16.703125 L 11.65625 -16.953125 C 11.820312 -16.085938 11.90625 -15.328125 11.90625 -14.671875 C 11.90625 -14.023438 11.6875 -13.703125 11.25 -13.703125 Z M 4.34375 -13.703125 "/></g></g></g><g fill="#545454" fill-opacity="1"><g transform="translate(213.49815, 252.288953)"><g><path d="M 2.09375 -0.59375 L 2.09375 -27.65625 C 2.09375 -28.382812 1.957031 -28.90625 1.6875 -29.21875 C 1.425781 -29.539062 0.945312 -29.703125 0.25 -29.703125 C 0.21875 -30.566406 0.453125 -31.25 0.953125 -31.75 C 1.453125 -32.25 2.25 -32.5 3.34375 -32.5 C 4.445312 -32.5 5.234375 -31.945312 5.703125 -30.84375 C 7.003906 -31.945312 8.335938 -32.5 9.703125 -32.5 C 13.003906 -32.5 14.65625 -30.863281 14.65625 -27.59375 L 14.65625 -15.296875 C 14.65625 -13.628906 14.078125 -12.328125 12.921875 -11.390625 C 11.773438 -10.460938 10.21875 -10 8.25 -10 L 6.046875 -10 L 6.046875 -4.703125 L 6.25 0 C 5.113281 0.164062 4 0.25 2.90625 0.25 C 2.363281 0.25 2.09375 -0.03125 2.09375 -0.59375 Z M 8.75 -29.203125 C 7.851562 -29.203125 6.953125 -28.75 6.046875 -27.84375 L 6.046875 -13.296875 L 8.34375 -13.296875 C 9.050781 -13.296875 9.617188 -13.46875 10.046875 -13.8125 C 10.484375 -14.164062 10.703125 -14.660156 10.703125 -15.296875 L 10.703125 -27.296875 C 10.703125 -28.566406 10.050781 -29.203125 8.75 -29.203125 Z M 8.75 -29.203125 "/></g></g></g><g fill="#545454" fill-opacity="1"><g transform="translate(229.395686, 252.288953)"><g><path d="M 1.65625 -4.59375 L 1.65625 -27.703125 C 1.65625 -29.367188 2.21875 -30.664062 3.34375 -31.59375 C 4.476562 -32.53125 6.03125 -33 8 -33 C 9.96875 -33 11.492188 -32.566406 12.578125 -31.703125 C 13.660156 -30.835938 14.203125 -29.570312 14.203125 -27.90625 L 14.203125 -4.796875 C 14.203125 -3.128906 13.625 -1.828125 12.46875 -0.890625 C 11.320312 0.0351562 9.765625 0.5 7.796875 0.5 C 5.828125 0.5 4.3125 0.0664062 3.25 -0.796875 C 2.1875 -1.660156 1.65625 -2.925781 1.65625 -4.59375 Z M 5.59375 -27.703125 L 5.59375 -4.796875 C 5.59375 -4.203125 5.800781 -3.71875 6.21875 -3.34375 C 6.632812 -2.976562 7.191406 -2.796875 7.890625 -2.796875 C 8.597656 -2.796875 9.164062 -2.96875 9.59375 -3.3125 C 10.03125 -3.664062 10.25 -4.160156 10.25 -4.796875 L 10.25 -27.703125 C 10.25 -28.335938 10.03125 -28.828125 9.59375 -29.171875 C 9.164062 -29.523438 8.597656 -29.703125 7.890625 -29.703125 C 7.191406 -29.703125 6.632812 -29.523438 6.21875 -29.171875 C 5.800781 -28.828125 5.59375 -28.335938 5.59375 -27.703125 Z M 5.59375 -27.703125 "/></g></g></g><g fill="#545454" fill-opacity="1"><g transform="translate(245.243234, 252.288953)"><g><path d="M 2.09375 -0.59375 L 2.09375 -27.65625 C 2.09375 -28.382812 1.957031 -28.90625 1.6875 -29.21875 C 1.425781 -29.539062 0.945312 -29.703125 0.25 -29.703125 C 0.21875 -30.566406 0.453125 -31.25 0.953125 -31.75 C 1.453125 -32.25 2.25 -32.5 3.34375 -32.5 C 4.445312 -32.5 5.234375 -31.945312 5.703125 -30.84375 C 7.003906 -31.945312 8.335938 -32.5 9.703125 -32.5 C 13.003906 -32.5 14.65625 -30.863281 14.65625 -27.59375 L 14.65625 -15.296875 C 14.65625 -13.628906 14.078125 -12.328125 12.921875 -11.390625 C 11.773438 -10.460938 10.21875 -10 8.25 -10 L 6.046875 -10 L 6.046875 -4.703125 L 6.25 0 C 5.113281 0.164062 4 0.25 2.90625 0.25 C 2.363281 0.25 2.09375 -0.03125 2.09375 -0.59375 Z M 8.75 -29.203125 C 7.851562 -29.203125 6.953125 -28.75 6.046875 -27.84375 L 6.046875 -13.296875 L 8.34375 -13.296875 C 9.050781 -13.296875 9.617188 -13.46875 10.046875 -13.8125 C 10.484375 -14.164062 10.703125 -14.660156 10.703125 -15.296875 L 10.703125 -27.296875 C 10.703125 -28.566406 10.050781 -29.203125 8.75 -29.203125 Z M 8.75 -29.203125 "/></g></g></g><g fill="#57595b" fill-opacity="1"><g transform="translate(168.086755, 275.533722)"><g><path d="M 1.449219 -3.371094 L 1.449219 -6.128906 L 3.027344 -6.128906 C 3.4375 -6.128906 3.769531 -6 4.019531 -5.75 C 4.257812 -5.488281 4.390625 -5.167969 4.390625 -4.769531 C 4.390625 -4.359375 4.257812 -4.027344 4 -3.757812 C 3.738281 -3.5 3.417969 -3.371094 3.027344 -3.371094 Z M 5.089844 -4.75 C 5.089844 -5.347656 4.867188 -5.839844 4.449219 -6.226562 C 4.027344 -6.609375 3.527344 -6.796875 2.929688 -6.796875 L 0.75 -6.796875 L 0.75 0 L 1.449219 0 L 1.449219 -2.6875 L 2.929688 -2.6875 C 3.527344 -2.6875 4.039062 -2.878906 4.449219 -3.257812 C 4.867188 -3.660156 5.089844 -4.148438 5.089844 -4.75 Z M 5.089844 -4.75 "/></g></g></g><g fill="#57595b" fill-opacity="1"><g transform="translate(175.264679, 275.533722)"><g><path d="M 6.738281 -3.417969 C 6.738281 -2.640625 6.457031 -1.980469 5.917969 -1.441406 C 5.367188 -0.890625 4.707031 -0.621094 3.9375 -0.621094 C 3.167969 -0.621094 2.507812 -0.890625 1.96875 -1.441406 C 1.417969 -1.980469 1.148438 -2.640625 1.148438 -3.417969 C 1.148438 -4.179688 1.417969 -4.839844 1.96875 -5.386719 C 2.507812 -5.929688 3.167969 -6.207031 3.9375 -6.207031 C 4.707031 -6.207031 5.367188 -5.929688 5.917969 -5.386719 C 6.457031 -4.839844 6.738281 -4.179688 6.738281 -3.417969 Z M 7.4375 -3.417969 C 7.4375 -3.898438 7.339844 -4.347656 7.160156 -4.777344 C 6.976562 -5.199219 6.726562 -5.570312 6.410156 -5.886719 C 6.089844 -6.199219 5.71875 -6.449219 5.296875 -6.628906 C 4.867188 -6.808594 4.417969 -6.910156 3.9375 -6.910156 C 3.460938 -6.910156 3 -6.808594 2.578125 -6.628906 C 2.160156 -6.449219 1.789062 -6.199219 1.46875 -5.886719 C 1.148438 -5.570312 0.898438 -5.199219 0.71875 -4.777344 C 0.539062 -4.347656 0.449219 -3.898438 0.449219 -3.417969 C 0.449219 -2.9375 0.539062 -2.480469 0.71875 -2.058594 C 0.898438 -1.628906 1.148438 -1.257812 1.46875 -0.941406 C 1.789062 -0.621094 2.160156 -0.371094 2.578125 -0.191406 C 3 -0.0117188 3.460938 0.078125 3.9375 0.078125 C 4.417969 0.078125 4.867188 -0.0117188 5.296875 -0.191406 C 5.71875 -0.371094 6.089844 -0.621094 6.410156 -0.941406 C 6.726562 -1.257812 6.976562 -1.628906 7.160156 -2.058594 C 7.339844 -2.480469 7.4375 -2.9375 7.4375 -3.417969 Z M 7.4375 -3.417969 "/></g></g></g><g fill="#57595b" fill-opacity="1"><g transform="translate(185.041578, 275.533722)"><g><path d="M 1.449219 -3.371094 L 1.449219 -6.128906 L 3.027344 -6.128906 C 3.4375 -6.128906 3.769531 -6 4.019531 -5.75 C 4.257812 -5.488281 4.390625 -5.167969 4.390625 -4.769531 C 4.390625 -4.359375 4.257812 -4.027344 4 -3.757812 C 3.738281 -3.5 3.417969 -3.371094 3.027344 -3.371094 Z M 5.089844 -4.75 C 5.089844 -5.347656 4.867188 -5.839844 4.449219 -6.226562 C 4.027344 -6.609375 3.527344 -6.796875 2.929688 -6.796875 L 0.75 -6.796875 L 0.75 0 L 1.449219 0 L 1.449219 -2.6875 L 2.929688 -2.6875 C 3.527344 -2.6875 4.039062 -2.878906 4.449219 -3.257812 C 4.867188 -3.660156 5.089844 -4.148438 5.089844 -4.75 Z M 5.089844 -4.75 "/></g></g></g><g fill="#57595b" fill-opacity="1"><g transform="translate(192.219502, 275.533722)"><g/></g></g><g fill="#57595b" fill-opacity="1"><g transform="translate(196.808451, 275.533722)"><g><path d="M 1.449219 0 L 1.449219 -6.796875 L 0.75 -6.796875 L 0.75 0 Z M 1.449219 0 "/></g></g></g><g fill="#57595b" fill-opacity="1"><g transform="translate(200.897591, 275.533722)"><g><path d="M 1.449219 -5.007812 L 5.269531 0.417969 L 5.269531 -6.796875 L 4.570312 -6.796875 L 4.570312 -1.800781 L 0.75 -7.226562 L 0.75 0 L 1.449219 0 Z M 1.449219 -5.007812 "/></g></g></g></svg>